<?xml version="1.0" encoding="UTF-8" standalone="no"?>
<svg
   xmlns:dc="http://purl.org/dc/elements/1.1/"
   xmlns:cc="http://creativecommons.org/ns#"
   xmlns:rdf="http://www.w3.org/1999/02/22-rdf-syntax-ns#"
   xmlns:svg="http://www.w3.org/2000/svg"
   xmlns="http://www.w3.org/2000/svg"
   xmlns:sodipodi="http://sodipodi.sourceforge.net/DTD/sodipodi-0.dtd"
   xmlns:inkscape="http://www.inkscape.org/namespaces/inkscape"
   id="trend-chart"
   width="553.25415"
   height="346.16992"
   title="Stack Overflow Trends Chart"
   version="1.1"
   sodipodi:docname="trend.svg"
   inkscape:version="0.92.3 (2405546, 2018-03-11)"
   inkscape:export-filename="/home/Simone/.local/src/NCC-Beginner-Training-2021/trend.svg.png"
   inkscape:export-xdpi="500"
   inkscape:export-ydpi="500">
  <metadata
     id="metadata293">
    <rdf:RDF>
      <cc:Work
         rdf:about="">
        <dc:format>image/svg+xml</dc:format>
        <dc:type
           rdf:resource="http://purl.org/dc/dcmitype/StillImage" />
        <dc:title></dc:title>
      </cc:Work>
    </rdf:RDF>
  </metadata>
  <defs
     id="defs291" />
  <sodipodi:namedview
     pagecolor="#ffffff"
     bordercolor="#666666"
     borderopacity="1"
     objecttolerance="10"
     gridtolerance="10"
     guidetolerance="10"
     inkscape:pageopacity="0"
     inkscape:pageshadow="2"
     inkscape:window-width="1920"
     inkscape:window-height="1025"
     id="namedview289"
     showgrid="false"
     inkscape:pagecheckerboard="false"
     fit-margin-top="0"
     fit-margin-left="0"
     fit-margin-right="0"
     fit-margin-bottom="0"
     inkscape:zoom="0.7842457"
     inkscape:cx="448.7818"
     inkscape:cy="123.46216"
     inkscape:window-x="0"
     inkscape:window-y="27"
     inkscape:window-maximized="1"
     inkscape:current-layer="g252" />
  <g
     id="g2"
     transform="translate(-22.882812,-20)" />
  <g
     id="g1281"
     transform="translate(-22.882812,-20)">
    <g
       id="g254"
       transform="translate(100,20)"
       class="chart-area">
      <g
         id="g84"
         font-size="10"
         transform="translate(0,300)"
         style="font-size:10px;font-family:sans-serif;text-anchor:middle;fill:none">
        <path
           id="path4"
           d="M 0.5,6 V 0.5 h 410 V 6"
           class="domain"
           inkscape:connector-curvature="0"
           style="stroke:#000000" />
        <g
           id="g10"
           transform="translate(13.833004)"
           class="tick"
           style="opacity:1">
          <line
             id="line6"
             x2="0.5"
             x1="0.5"
             y2="6"
             y1="0"
             style="stroke:#000000" />
          <text
             id="text8"
             style="font-size:12px;fill:#000000"
             dy="0.70999998em"
             x="0.5"
             y="9">2009</text>
        </g>
        <g
           id="g16"
           transform="translate(46.824324)"
           class="tick"
           style="opacity:1">
          <line
             id="line12"
             x2="0.5"
             x1="0.5"
             y2="6"
             y1="0"
             style="stroke:#000000" />
          <text
             id="text14"
             style="font-size:12px;fill:#000000"
             dy="0.70999998em"
             x="0.5"
             y="9">2010</text>
        </g>
        <g
           id="g22"
           transform="translate(79.815643)"
           class="tick"
           style="opacity:1">
          <line
             id="line18"
             x2="0.5"
             x1="0.5"
             y2="6"
             y1="0"
             style="stroke:#000000" />
          <text
             id="text20"
             style="font-size:12px;fill:#000000"
             dy="0.70999998em"
             x="0.5"
             y="9">2011</text>
        </g>
        <g
           id="g28"
           transform="translate(112.80696)"
           class="tick"
           style="opacity:1">
          <line
             id="line24"
             x2="0.5"
             x1="0.5"
             y2="6"
             y1="0"
             style="stroke:#000000" />
          <text
             id="text26"
             style="font-size:12px;fill:#000000"
             dy="0.70999998em"
             x="0.5"
             y="9">2012</text>
        </g>
        <g
           id="g34"
           transform="translate(145.88867)"
           class="tick"
           style="opacity:1">
          <line
             id="line30"
             x2="0.5"
             x1="0.5"
             y2="6"
             y1="0"
             style="stroke:#000000" />
          <text
             id="text32"
             style="font-size:12px;fill:#000000"
             dy="0.70999998em"
             x="0.5"
             y="9">2013</text>
        </g>
        <g
           id="g40"
           transform="translate(178.87999)"
           class="tick"
           style="opacity:1">
          <line
             id="line36"
             x2="0.5"
             x1="0.5"
             y2="6"
             y1="0"
             style="stroke:#000000" />
          <text
             id="text38"
             style="font-size:12px;fill:#000000"
             dy="0.70999998em"
             x="0.5"
             y="9">2014</text>
        </g>
        <g
           id="g46"
           transform="translate(211.87131)"
           class="tick"
           style="opacity:1">
          <line
             id="line42"
             x2="0.5"
             x1="0.5"
             y2="6"
             y1="0"
             style="stroke:#000000" />
          <text
             id="text44"
             style="font-size:12px;fill:#000000"
             dy="0.70999998em"
             x="0.5"
             y="9">2015</text>
        </g>
        <g
           id="g52"
           transform="translate(244.86263)"
           class="tick"
           style="opacity:1">
          <line
             id="line48"
             x2="0.5"
             x1="0.5"
             y2="6"
             y1="0"
             style="stroke:#000000" />
          <text
             id="text50"
             style="font-size:12px;fill:#000000"
             dy="0.70999998em"
             x="0.5"
             y="9">2016</text>
        </g>
        <g
           id="g58"
           transform="translate(277.94433)"
           class="tick"
           style="opacity:1">
          <line
             id="line54"
             x2="0.5"
             x1="0.5"
             y2="6"
             y1="0"
             style="stroke:#000000" />
          <text
             id="text56"
             style="font-size:12px;fill:#000000"
             dy="0.70999998em"
             x="0.5"
             y="9">2017</text>
        </g>
        <g
           id="g64"
           transform="translate(310.93565)"
           class="tick"
           style="opacity:1">
          <line
             id="line60"
             x2="0.5"
             x1="0.5"
             y2="6"
             y1="0"
             style="stroke:#000000" />
          <text
             id="text62"
             style="font-size:12px;fill:#000000"
             dy="0.70999998em"
             x="0.5"
             y="9">2018</text>
        </g>
        <g
           id="g70"
           transform="translate(343.92697)"
           class="tick"
           style="opacity:1">
          <line
             id="line66"
             x2="0.5"
             x1="0.5"
             y2="6"
             y1="0"
             style="stroke:#000000" />
          <text
             id="text68"
             style="font-size:12px;fill:#000000"
             dy="0.70999998em"
             x="0.5"
             y="9">2019</text>
        </g>
        <g
           id="g76"
           transform="translate(376.91829)"
           class="tick"
           style="opacity:1">
          <line
             id="line72"
             x2="0.5"
             x1="0.5"
             y2="6"
             y1="0"
             style="stroke:#000000" />
          <text
             id="text74"
             style="font-size:12px;fill:#000000"
             dy="0.70999998em"
             x="0.5"
             y="9">2020</text>
        </g>
        <g
           id="g82"
           transform="translate(410)"
           class="tick"
           style="opacity:1">
          <line
             id="line78"
             x2="0.5"
             x1="0.5"
             y2="6"
             y1="0"
             style="stroke:#000000" />
          <text
             id="text80"
             style="font-size:12px;fill:#000000"
             dy="0.70999998em"
             x="0.5"
             y="9">2021</text>
        </g>
      </g>
      <g
         id="g140"
         font-size="10"
         transform="translate(0,300)"
         class="grid-lines"
         style="font-size:10px;font-family:sans-serif;text-anchor:middle;fill:none">
        <path
           id="path86"
           d="M 0.5,-300 V 0.5 h 410 V -300"
           class="domain"
           inkscape:connector-curvature="0"
           style="stroke:#000000" />
        <g
           id="g90"
           transform="translate(13.833004)"
           class="tick"
           style="opacity:1">
          <line
             id="line88"
             style="fill:none;stroke:#cccccc"
             x2="0.5"
             x1="0.5"
             y2="-300"
             y1="0" />
        </g>
        <g
           id="g94"
           transform="translate(46.824324)"
           class="tick"
           style="opacity:1">
          <line
             id="line92"
             style="fill:none;stroke:#cccccc"
             x2="0.5"
             x1="0.5"
             y2="-300"
             y1="0" />
        </g>
        <g
           id="g98"
           transform="translate(79.815643)"
           class="tick"
           style="opacity:1">
          <line
             id="line96"
             style="fill:none;stroke:#cccccc"
             x2="0.5"
             x1="0.5"
             y2="-300"
             y1="0" />
        </g>
        <g
           id="g102"
           transform="translate(112.80696)"
           class="tick"
           style="opacity:1">
          <line
             id="line100"
             style="fill:none;stroke:#cccccc"
             x2="0.5"
             x1="0.5"
             y2="-300"
             y1="0" />
        </g>
        <g
           id="g106"
           transform="translate(145.88867)"
           class="tick"
           style="opacity:1">
          <line
             id="line104"
             style="fill:none;stroke:#cccccc"
             x2="0.5"
             x1="0.5"
             y2="-300"
             y1="0" />
        </g>
        <g
           id="g110"
           transform="translate(178.87999)"
           class="tick"
           style="opacity:1">
          <line
             id="line108"
             style="fill:none;stroke:#cccccc"
             x2="0.5"
             x1="0.5"
             y2="-300"
             y1="0" />
        </g>
        <g
           id="g114"
           transform="translate(211.87131)"
           class="tick"
           style="opacity:1">
          <line
             id="line112"
             style="fill:none;stroke:#cccccc"
             x2="0.5"
             x1="0.5"
             y2="-300"
             y1="0" />
        </g>
        <g
           id="g118"
           transform="translate(244.86263)"
           class="tick"
           style="opacity:1">
          <line
             id="line116"
             style="fill:none;stroke:#cccccc"
             x2="0.5"
             x1="0.5"
             y2="-300"
             y1="0" />
        </g>
        <g
           id="g122"
           transform="translate(277.94433)"
           class="tick"
           style="opacity:1">
          <line
             id="line120"
             style="fill:none;stroke:#cccccc"
             x2="0.5"
             x1="0.5"
             y2="-300"
             y1="0" />
        </g>
        <g
           id="g126"
           transform="translate(310.93565)"
           class="tick"
           style="opacity:1">
          <line
             id="line124"
             style="fill:none;stroke:#cccccc"
             x2="0.5"
             x1="0.5"
             y2="-300"
             y1="0" />
        </g>
        <g
           id="g130"
           transform="translate(343.92697)"
           class="tick"
           style="opacity:1">
          <line
             id="line128"
             style="fill:none;stroke:#cccccc"
             x2="0.5"
             x1="0.5"
             y2="-300"
             y1="0" />
        </g>
        <g
           id="g134"
           transform="translate(376.91829)"
           class="tick"
           style="opacity:1">
          <line
             id="line132"
             style="fill:none;stroke:#cccccc"
             x2="0.5"
             x1="0.5"
             y2="-300"
             y1="0" />
        </g>
        <g
           id="g138"
           transform="translate(410)"
           class="tick"
           style="opacity:1">
          <line
             id="line136"
             style="fill:none;stroke:#cccccc"
             x2="0.5"
             x1="0.5"
             y2="-300"
             y1="0" />
        </g>
      </g>
      <text
         id="text142"
         style="font-weight:bold;text-anchor:middle"
         class="axis-label x-axis-label"
         y="346"
         x="205">Year</text>
      <g
         id="g200"
         font-size="10"
         style="font-size:10px;font-family:sans-serif;text-anchor:end;fill:none">
        <path
           id="path144"
           d="M -6,300.5 H 0.5 V 0.5 H -6"
           class="domain"
           inkscape:connector-curvature="0"
           style="stroke:#000000" />
        <g
           id="g150"
           transform="translate(0,300)"
           class="tick"
           style="opacity:1">
          <line
             id="line146"
             y2="0.5"
             y1="0.5"
             x2="-6"
             x1="0"
             style="stroke:#000000" />
          <text
             id="text148"
             style="font-size:12px;fill:#000000"
             dy="0.31999999em"
             y="0.5"
             x="-9">0.00%</text>
        </g>
        <g
           id="g156"
           transform="translate(0,264.70588)"
           class="tick"
           style="opacity:1">
          <line
             id="line152"
             y2="0.5"
             y1="0.5"
             x2="-6"
             x1="0"
             style="stroke:#000000" />
          <text
             id="text154"
             style="font-size:12px;fill:#000000"
             dy="0.31999999em"
             y="0.5"
             x="-9">2.00%</text>
        </g>
        <g
           id="g162"
           transform="translate(0,229.41176)"
           class="tick"
           style="opacity:1">
          <line
             id="line158"
             y2="0.5"
             y1="0.5"
             x2="-6"
             x1="0"
             style="stroke:#000000" />
          <text
             id="text160"
             style="font-size:12px;fill:#000000"
             dy="0.31999999em"
             y="0.5"
             x="-9">4.00%</text>
        </g>
        <g
           id="g168"
           transform="translate(0,194.11765)"
           class="tick"
           style="opacity:1">
          <line
             id="line164"
             y2="0.5"
             y1="0.5"
             x2="-6"
             x1="0"
             style="stroke:#000000" />
          <text
             id="text166"
             style="font-size:12px;fill:#000000"
             dy="0.31999999em"
             y="0.5"
             x="-9">6.00%</text>
        </g>
        <g
           id="g174"
           transform="translate(0,158.82353)"
           class="tick"
           style="opacity:1">
          <line
             id="line170"
             y2="0.5"
             y1="0.5"
             x2="-6"
             x1="0"
             style="stroke:#000000" />
          <text
             id="text172"
             style="font-size:12px;fill:#000000"
             dy="0.31999999em"
             y="0.5"
             x="-9">8.00%</text>
        </g>
        <g
           id="g180"
           transform="translate(0,123.52941)"
           class="tick"
           style="opacity:1">
          <line
             id="line176"
             y2="0.5"
             y1="0.5"
             x2="-6"
             x1="0"
             style="stroke:#000000" />
          <text
             id="text178"
             style="font-size:12px;fill:#000000"
             dy="0.31999999em"
             y="0.5"
             x="-9">10.00%</text>
        </g>
        <g
           id="g186"
           transform="translate(0,88.235294)"
           class="tick"
           style="opacity:1">
          <line
             id="line182"
             y2="0.5"
             y1="0.5"
             x2="-6"
             x1="0"
             style="stroke:#000000" />
          <text
             id="text184"
             style="font-size:12px;fill:#000000"
             dy="0.31999999em"
             y="0.5"
             x="-9">12.00%</text>
        </g>
        <g
           id="g192"
           transform="translate(0,52.941176)"
           class="tick"
           style="opacity:1">
          <line
             id="line188"
             y2="0.5"
             y1="0.5"
             x2="-6"
             x1="0"
             style="stroke:#000000" />
          <text
             id="text190"
             style="font-size:12px;fill:#000000"
             dy="0.31999999em"
             y="0.5"
             x="-9">14.00%</text>
        </g>
        <g
           id="g198"
           transform="translate(0,17.647059)"
           class="tick"
           style="opacity:1">
          <line
             id="line194"
             y2="0.5"
             y1="0.5"
             x2="-6"
             x1="0"
             style="stroke:#000000" />
          <text
             id="text196"
             style="font-size:12px;fill:#000000"
             dy="0.31999999em"
             y="0.5"
             x="-9">16.00%</text>
        </g>
      </g>
      <g
         id="g240"
         font-size="10"
         class="grid-lines"
         style="font-size:10px;font-family:sans-serif;text-anchor:end;fill:none">
        <path
           id="path202"
           d="M 410,300.5 H 0.5 V 0.5 H 410"
           class="domain"
           inkscape:connector-curvature="0"
           style="stroke:#000000" />
        <g
           id="g206"
           transform="translate(0,300)"
           class="tick"
           style="opacity:1">
          <line
             id="line204"
             style="fill:none;stroke:#cccccc"
             y2="0.5"
             y1="0.5"
             x2="410"
             x1="0" />
        </g>
        <g
           id="g210"
           transform="translate(0,264.70588)"
           class="tick"
           style="opacity:1">
          <line
             id="line208"
             style="fill:none;stroke:#cccccc"
             y2="0.5"
             y1="0.5"
             x2="410"
             x1="0" />
        </g>
        <g
           id="g214"
           transform="translate(0,229.41176)"
           class="tick"
           style="opacity:1">
          <line
             id="line212"
             style="fill:none;stroke:#cccccc"
             y2="0.5"
             y1="0.5"
             x2="410"
             x1="0" />
        </g>
        <g
           id="g218"
           transform="translate(0,194.11765)"
           class="tick"
           style="opacity:1">
          <line
             id="line216"
             style="fill:none;stroke:#cccccc"
             y2="0.5"
             y1="0.5"
             x2="410"
             x1="0" />
        </g>
        <g
           id="g222"
           transform="translate(0,158.82353)"
           class="tick"
           style="opacity:1">
          <line
             id="line220"
             style="fill:none;stroke:#cccccc"
             y2="0.5"
             y1="0.5"
             x2="410"
             x1="0" />
        </g>
        <g
           id="g226"
           transform="translate(0,123.52941)"
           class="tick"
           style="opacity:1">
          <line
             id="line224"
             style="fill:none;stroke:#cccccc"
             y2="0.5"
             y1="0.5"
             x2="410"
             x1="0" />
        </g>
        <g
           id="g230"
           transform="translate(0,88.235294)"
           class="tick"
           style="opacity:1">
          <line
             id="line228"
             style="fill:none;stroke:#cccccc"
             y2="0.5"
             y1="0.5"
             x2="410"
             x1="0" />
        </g>
        <g
           id="g234"
           transform="translate(0,52.941176)"
           class="tick"
           style="opacity:1">
          <line
             id="line232"
             style="fill:none;stroke:#cccccc"
             y2="0.5"
             y1="0.5"
             x2="410"
             x1="0" />
        </g>
        <g
           id="g238"
           transform="translate(0,17.647059)"
           class="tick"
           style="opacity:1">
          <line
             id="line236"
             style="fill:none;stroke:#cccccc"
             y2="0.5"
             y1="0.5"
             x2="410"
             x1="0" />
        </g>
      </g>
      <g
         id="g252"
         class="lines">
        <path
           id="path242"
           style="fill:none;stroke:#1f77b4;stroke-width:4;stroke-miterlimit:4;stroke-dasharray:none"
           data-legend="r"
           d="M 2.8020025,299.23848 5.5136178,300 l 2.8057686,-0.14049 2.7116156,-0.007 2.802002,-0.74979 2.802003,-0.0143 2.530841,0.5633 2.798236,-0.65415 2.711615,0.86435 2.802003,-0.17679 2.711615,-2.4869 2.802003,0.24467 2.802002,-4.88568 2.711615,3.86688 2.805769,-0.77312 2.711615,0.57934 2.802003,0.0517 2.802002,-1.12246 2.530841,0.11317 2.798236,-0.95203 2.711616,0.92832 2.802002,-0.92032 2.711616,-1.15822 2.802002,-1.05894 2.802003,1.04291 2.711615,0.89312 2.805768,-0.21295 2.711616,0.47757 2.802002,0.14472 2.802003,-1.34259 2.530841,-0.526 2.798236,-1.40516 2.711615,1.28126 2.802003,-0.39382 2.711615,-0.0492 2.802003,-1.6879 2.802001,-0.93572 2.71162,-0.2249 2.80576,0.98216 2.71162,-0.61619 2.802,-0.0331 2.80201,-1.10844 2.62122,-0.14969 2.79824,0.19541 2.71162,0.0388 2.802,-1.65315 2.71161,-0.79584 2.80201,0.32847 2.802,-0.55551 2.71161,-0.76981 2.80577,-1.14368 2.71162,0.1958 2.802,-1.05553 2.802,-2.23438 2.53084,0.34215 2.79824,-0.13329 2.71161,0.0658 2.80201,-0.92692 2.71161,0.10881 2.802,-0.23051 2.80201,1.6903 2.71161,-1.81127 2.80577,-1.81218 2.71162,1.54107 2.802,-1.64366 2.802,-2.58362 2.53084,0.68031 2.79824,-0.92088 2.71161,-1.043 2.80201,-0.17538 2.71161,-0.25742 2.802,-0.47354 2.80201,1.58958 2.71161,-3.22959 2.80577,-0.3099 2.71162,1.86228 2.802,-1.84404 2.802,-2.59652 2.53084,-1.95599 2.79824,2.17234 2.71161,-1.64216 2.80201,0.32369 2.71161,-3.70557 2.802,1.96946 2.80201,0.89823 2.71161,-1.78998 2.80577,-0.19078 2.71162,2.51832 2.802,-1.94684 2.802,0.74057 2.62123,-1.7202 2.79823,-1.62909 2.71162,1.62604 2.802,-1.61774 2.71162,-0.36922 2.802,0.5753 2.802,2.83311 2.71162,-4.17797 2.80577,2.23804 2.71161,1.63254 2.802,-0.64222 2.80201,-2.20636 2.53084,-3.26915 2.79823,-1.77651 2.71162,1.20572 2.802,-3.20215 2.71162,-0.96858 2.802,-0.50376 2.802,-0.47791 2.71162,-1.16472 2.80577,0.0138 2.71161,2.03827 2.802,-1.16889 2.80201,-5.75652 2.53084,-0.13117 2.79823,0.65169 2.71162,1.65331 2.802,-1.67192 2.71162,2.7209 2.802,2.75979 2.802,-0.32121 2.71162,-1.83092 2.80577,-2.06169 2.71161,4.50444 2.802,-1.22955 2.80201,-4.70856 2.53084,1.98312 2.79823,-3.62551 2.71162,2.71738 2.802,-1.11209 2.71162,2.15951 2.802,-1.5746 2.802,-0.0518 2.71162,0.37328 2.80577,-0.32937 2.71161,1.2789 2.802,0.21073 2.80201,-4.06727 2.62122,-0.56429 2.79824,-1.72532 2.71162,2.3445 2.802,0.39752 2.71161,3.39239 2.80201,-0.9616 2.802,-5.04153 2.71161,-4.09444 2.80577,-0.63985 2.71162,6.20925 2.802,4.44861"
           class="line"
           inkscape:connector-curvature="0" />
        <path
           id="path244"
           style="fill:none;stroke:#ff7f0e;stroke-width:4;stroke-miterlimit:4;stroke-dasharray:none"
           data-legend="python"
           d="m 2.8020025,231.33588 2.7116153,6.33725 2.8057686,-1.17501 2.7116156,-1.58429 2.802002,-5.695 2.802003,6.96733 2.530841,-2.80348 2.798236,2.37481 2.711615,-4.75174 2.802003,3.17522 2.711615,2.0914 2.802003,1.75754 2.802002,-0.91643 2.711615,-6.722 2.805769,-2.47506 2.711615,-2.79273 2.802003,-2.21289 2.802002,3.0936 2.530841,3.52844 2.798236,6.00691 2.711616,-4.24126 2.802002,-1.6484 2.711616,-5.4171 2.802002,6.24804 2.802003,4.19602 2.711615,-8.94356 2.805768,7.7719 2.711616,3.13782 2.802002,-1.0542 2.802003,-0.0622 2.530841,-1.40665 2.798236,3.884 2.711615,-0.10661 2.802003,0.0423 2.711615,-2.38414 2.802003,1.19936 2.802001,2.22995 2.71162,-2.23935 2.80576,0.37281 2.71162,1.11957 2.802,-2.35992 2.80201,-0.043 2.62122,-2.56895 2.79824,-0.78512 2.71162,0.38199 2.802,-4.27778 2.71161,-0.0674 2.80201,-2.04675 2.802,3.12009 2.71161,-2.14202 2.80577,-4.05065 2.71162,1.16376 2.802,1.4173 2.802,-3.90966 2.53084,0.0651 2.79824,-4.14543 2.71161,-1.04002 2.80201,-1.90147 2.71161,-1.37378 2.802,3.78809 2.80201,-2.51075 2.71161,-6.10999 2.80577,-4.04709 2.71162,4.73833 2.802,-1.60408 2.802,-1.10142 2.53084,-4.03243 2.79824,-0.66099 2.71161,4.99469 2.80201,-4.09944 2.71161,-2.07095 2.802,0.38716 2.80201,5.15482 2.71161,-4.57805 2.80577,-3.65529 2.71162,-1.2998 2.802,-0.38359 2.802,-4.09343 2.53084,-1.01123 2.79824,1.44065 2.71161,-0.16786 2.80201,-4.34807 2.71161,-0.41931 2.802,2.12936 2.80201,0.3081 2.71161,-9.5022 2.80577,-3.55225 2.71162,2.65457 2.802,-1.26244 2.802,-3.83079 2.62123,1.00599 2.79823,0.5406 2.71162,0.28961 2.802,-1.44689 2.71162,-4.41432 2.802,2.59052 2.802,-1.65456 2.71162,-8.98865 2.80577,-6.9984 2.71161,0.8722 2.802,-0.66796 2.80201,-6.33714 2.53084,-1.07189 2.79823,-4.58249 2.71162,1.41815 2.802,-5.5476 2.71162,-7.57759 2.802,2.33658 2.802,-4.46618 2.71162,-7.83035 2.80577,-1.49332 2.71161,-4.0178 2.802,2.6103 2.80201,-9.58859 2.53084,5.48168 2.79823,-1.60832 2.71162,-0.75034 2.802,-7.15998 2.71162,-6.225291 2.802,0.04706 2.802,1.775111 2.71162,-3.989035 2.80577,-12.966168 2.71161,2.145292 2.802,9.695205 2.80201,-10.97092 2.53084,-6.681909 2.79823,-9.86523 2.71162,7.443981 2.802,-3.933049 2.71162,-6.694684 2.802,-1.415984 2.802,14.549916 2.71162,-18.662035 2.80577,-8.36 2.71161,4.010019 2.802,1.00197 2.80201,4.336913 2.62122,-13.390672 2.79824,-7.819749 2.71162,-11.19928 2.802,-0.633896 2.71161,-1.167967 2.80201,6.287133 2.802,3.355996 2.71161,-13.623929 2.80577,-7.094969 2.71162,-1.401046 2.802,6.10493"
           class="line"
           inkscape:connector-curvature="0" />
        <path
           id="path246"
           style="fill:none;stroke:#2ca02c;stroke-width:4;stroke-miterlimit:4;stroke-dasharray:none"
           data-legend="c"
           d="m 2.8020025,259.38537 2.7116153,3.58514 2.8057686,0.64235 2.7116156,8.78824 2.802002,-8.40864 2.802003,2.37866 2.530841,-3.99031 2.798236,-0.64228 2.711615,5.04201 2.802003,1.60113 2.711615,1.84215 2.802003,0.94023 2.802002,-2.12191 2.711615,-7.05496 2.805769,-6.68085 2.711615,4.59314 2.802003,1.25928 2.802002,-2.26301 2.530841,3.14994 2.798236,-4.10812 2.711616,1.69603 2.802002,3.56652 2.711616,-0.79175 2.802002,-0.59641 2.802003,-1.84111 2.711615,-0.13595 2.805768,-2.53411 2.711616,5.23097 2.802002,5.05212 2.802003,-2.65388 2.530841,-1.97095 2.798236,-0.78263 2.711615,5.59877 2.802003,0.68575 2.711615,2.38359 2.802003,-0.91639 2.802001,-3.1555 2.71162,-4.0662 2.80576,1.57905 2.71162,1.55376 2.802,0.19866 2.80201,-0.41807 2.62122,-1.82903 2.79824,-0.42241 2.71162,3.95723 2.802,1.40929 2.71161,1.65961 2.80201,0.53708 2.802,-4.85048 2.71161,-3.36122 2.80577,-0.99072 2.71162,4.64117 2.802,0.93159 2.802,-3.13612 2.53084,0.73478 2.79824,-1.41047 2.71161,2.54914 2.80201,1.04911 2.71161,2.64416 2.802,-1.00308 2.80201,-5.00228 2.71161,-4.38031 2.80577,-2.34482 2.71162,5.61951 2.802,2.442 2.802,-2.42082 2.53084,-1.50438 2.79824,2.40991 2.71161,3.69067 2.80201,2.62852 2.71161,1.81925 2.802,-0.66339 2.80201,-5.46781 2.71161,-4.50463 2.80577,-0.0991 2.71162,3.08905 2.802,1.68228 2.802,-1.20937 2.53084,-1.09129 2.79824,-0.37862 2.71161,3.28251 2.80201,3.73798 2.71161,4.37455 2.802,0.31617 2.80201,-5.56615 2.71161,-4.23214 2.80577,-0.97664 2.71162,4.21894 2.802,1.90694 2.802,-1.02294 2.62123,0.45077 2.79823,0.13308 2.71162,4.78251 2.802,3.31037 2.71162,-1.37155 2.802,1.90968 2.802,-4.38797 2.71162,-6.55193 2.80577,-0.58925 2.71161,2.54661 2.802,2.86586 2.80201,0.0834 2.53084,1.48034 2.79823,-2.27416 2.71162,2.34264 2.802,2.64912 2.71162,3.177 2.802,-0.2063 2.802,-2.53161 2.71162,-6.10124 2.80577,-1.99135 2.71161,4.27188 2.802,2.25006 2.80201,-0.33968 2.53084,-0.49555 2.79823,1.40437 2.71162,-1.14578 2.802,4.00255 2.71162,3.27763 2.802,-1.09962 2.802,-3.84763 2.71162,-4.60362 2.80577,-2.92542 2.71161,0.3997 2.802,2.40663 2.80201,2.33141 2.53084,-1.32284 2.79823,-1.90297 2.71162,3.38149 2.802,2.07137 2.71162,2.11278 2.802,0.51642 2.802,-6.0549 2.71162,-2.81079 2.80577,-1.16188 2.71161,1.39726 2.802,4.14556 2.80201,3.14506 2.62122,-3.44227 2.79824,-2.56522 2.71162,-0.5313 2.802,4.70184 2.71161,3.5819 2.80201,-0.37664 2.802,-3.58653 2.71161,-2.35612 2.80577,-5.28551 2.71162,0.63539 2.802,1.72689"
           class="line"
           inkscape:connector-curvature="0" />
        <path
           id="path248"
           style="fill:none;stroke:#d62728;stroke-width:4;stroke-miterlimit:4;stroke-dasharray:none"
           data-legend="c++"
           d="m 2.8020025,204.30177 2.7116153,-3.41371 2.8057686,-4.14885 2.7116156,9.83779 2.802002,-2.26058 2.802003,10.19329 2.530841,-6.20649 2.798236,6.48565 2.711615,1.16107 2.802003,5.13021 2.711615,-1.67362 2.802003,4.36862 2.802002,-2.78781 2.711615,-3.724 2.805769,1.446 2.711615,3.16296 2.802003,-1.05782 2.802002,-11.23592 2.530841,7.40487 2.798236,-5.36781 2.711616,5.63495 2.802002,-7.32267 2.711616,11.59079 2.802002,4.94841 2.802003,-6.03231 2.711615,-2.04451 2.805768,-4.34922 2.711616,5.92126 2.802002,2.43408 2.802003,3.82827 2.530841,0.34325 2.798236,-3.78955 2.711615,8.66006 2.802003,0.37573 2.711615,0.47273 2.802003,2.47216 2.802001,-3.1714 2.71162,-7.51729 2.80576,3.12198 2.71162,-1.56228 2.802,5.13776 2.80201,-3.6669 2.62122,3.56091 2.79824,-3.50006 2.71162,7.23964 2.802,2.63568 2.71161,-2.96976 2.80201,1.24578 2.802,-1.14226 2.71161,-4.10946 2.80577,-5.1909 2.71162,0.6863 2.802,6.46092 2.802,-2.25084 2.53084,-3.05459 2.79824,-0.45459 2.71161,1.05723 2.80201,3.44679 2.71161,3.37733 2.802,0.8618 2.80201,-5.06511 2.71161,-6.49306 2.80577,-5.07878 2.71162,6.64474 2.802,2.9799 2.802,-0.26324 2.53084,-1.53354 2.79824,-0.0466 2.71161,5.73185 2.80201,6.42614 2.71161,-0.94493 2.802,-0.97952 2.80201,-2.46108 2.71161,-3.93816 2.80577,0.27645 2.71162,0.3959 2.802,3.89404 2.802,-2.78542 2.53084,-0.80578 2.79824,2.22384 2.71161,1.60085 2.80201,3.62389 2.71161,0.6489 2.802,3.43624 2.80201,-1.53883 2.71161,-8.10705 2.80577,-3.4896 2.71162,3.07782 2.802,7.69316 2.802,-2.05196 2.62123,-0.0782 2.79823,-0.36511 2.71162,4.75605 2.802,2.39061 2.71162,0.16745 2.802,5.9024 2.802,-4.22716 2.71162,-7.36916 2.80577,-1.14514 2.71161,4.3846 2.802,0.52605 2.80201,4.29671 2.53084,-2.38029 2.79823,-3.60161 2.71162,8.01377 2.802,3.78182 2.71162,-2.89784 2.802,1.61383 2.802,-1.00957 2.71162,-5.50837 2.80577,1.56645 2.71161,-1.53442 2.802,1.76894 2.80201,-0.38176 2.53084,-0.28117 2.79823,2.3285 2.71162,1.29307 2.802,2.49563 2.71162,3.62435 2.802,-0.45162 2.802,-2.27782 2.71162,-1.7094 2.80577,-4.00515 2.71161,3.72879 2.802,1.56245 2.80201,0.94983 2.53084,-3.5625 2.79823,-1.9339 2.71162,2.38457 2.802,0.69002 2.71162,-2.29273 2.802,7.46285 2.802,-6.71889 2.71162,-7.00906 2.80577,-0.40674 2.71161,0.62582 2.802,5.40412 2.80201,5.31258 2.62122,-2.29179 2.79824,-6.21575 2.71162,-1.0451 2.802,2.85275 2.71161,2.5843 2.80201,-1.3623 2.802,7.05548 2.71161,-5.20606 2.80577,-2.36007 2.71162,-2.13601 2.802,5.02323"
           class="line"
           inkscape:connector-curvature="0" />
        <path
           id="path250"
           style="fill:none;stroke:#9467bd;stroke-width:4;stroke-miterlimit:4;stroke-dasharray:none"
           data-legend="fortran"
           d="m 2.8020025,299.61924 2.7116153,0.0141 2.8057686,-0.19533 2.7116156,-0.0284 2.802002,0.25383 2.802003,-0.16994 2.530841,-0.19019 2.798236,0.0283 2.711615,-0.29857 2.802003,-0.16683 2.711615,0.36459 2.802003,0.0618 2.802002,0.3837 2.711615,-0.41118 2.805769,0.27211 2.711615,-0.14991 2.802003,0.17749 2.802002,-0.0807 2.530841,-0.13039 2.798236,0.18474 2.711616,-0.18798 2.802002,0.1715 2.711616,-0.19336 2.802002,0.0302 2.802003,0.061 2.711615,-0.0596 2.805768,0.13021 2.711616,-0.17912 2.802002,-0.0209 2.802003,0.068 2.530841,0.0444 2.798236,-0.4216 2.711615,0.45402 2.802003,-0.0425 2.711615,0.23815 2.802003,-0.27428 2.802001,-0.0669 2.71162,-0.022 2.80576,0.1646 2.71162,-0.40348 2.802,0.013 2.80201,0.17324 2.62122,-0.0479 2.79824,-0.1131 2.71162,0.13073 2.802,0.085 2.71161,-0.11777 2.80201,0.0214 2.802,0.18383 2.71161,-0.18464 2.80577,-0.0821 2.71162,-0.006 2.802,-0.051 2.802,0.0642 2.53084,-0.0657 2.79824,-0.002 2.71161,0.0897 2.80201,-0.0904 2.71161,0.14156 2.802,-0.0107 2.80201,-0.12902 2.71161,-0.53407 2.80577,0.31325 2.71162,0.19872 2.802,-0.0547 2.802,0.13571 2.53084,-0.27022 2.79824,0.22001 2.71161,-0.13992 2.80201,-0.48327 2.71161,0.41844 2.802,0.31231 2.80201,-0.072 2.71161,-0.19903 2.80577,-0.26459 2.71162,0.0921 2.802,0.36975 2.802,-0.31365 2.53084,-0.0457 2.79824,0.0825 2.71161,0.0496 2.80201,-0.25093 2.71161,0.0362 2.802,-0.0669 2.80201,0.22946 2.71161,0.20761 2.80577,-0.0957 2.71162,0.30279 2.802,-0.27586 2.802,0.0122 2.62123,-0.14211 2.79823,0.43027 2.71162,-0.11415 2.802,-0.40056 2.71162,-0.0441 2.802,0.18144 2.802,0.19102 2.71162,-0.2129 2.80577,0.0297 2.71161,0.0515 2.802,0.14924 2.80201,0.0728 2.53084,-0.25788 2.79823,-0.024 2.71162,0.13428 2.802,-0.3559 2.71162,0.19896 2.802,0.0549 2.802,0.10349 2.71162,0.16222 2.80577,-0.19498 2.71161,-0.0956 2.802,0.19459 2.80201,-0.10258 2.53084,-0.0451 2.79823,0.17078 2.71162,-0.12108 2.802,-0.25081 2.71162,0.27621 2.802,0.10598 2.802,0.0599 2.71162,0.0747 2.80577,-0.0194 2.71161,-0.18569 2.802,-0.10172 2.80201,-0.0581 2.53084,0.0601 2.79823,0.0388 2.71162,0.0912 2.802,-0.13248 2.71162,0.0732 2.802,-10e-4 2.802,-0.0661 2.71162,0.12535 2.80577,-0.13374 2.71161,0.38713 2.802,-0.13284 2.80201,0.0559 2.62122,0.0984 2.79824,-0.008 2.71162,-0.14931 2.802,-0.13467 2.71161,0.20384 2.80201,0.0268 2.802,-0.026 2.71161,0.12814 2.80577,-0.44982 2.71162,0.12783 2.802,-0.0459"
           class="line"
           inkscape:connector-curvature="0" />
      </g>
    </g>
    <g
       id="g258"
       transform="translate(20,128)">
      <text
         id="text256"
         style="font-weight:bold;text-anchor:middle"
         class="axis-label y-axis-label"
         dy="1em"
         y="0"
         x="-50"
         transform="rotate(-90)">% of Stack Overflow questions that month</text>
    </g>
    <g
       id="g286"
       style="font-size:12px"
       transform="translate(530,30)"
       class="legend">
      <g
         transform="translate(-0.90163994)"
         id="g1134">
        <text
           id="text262"
           x="-2.1238923"
           y="14.350634"
           style="font-size:14.39999962px;stroke-width:1.20000005">python</text>
        <circle
           id="circle272"
           style="fill:#ff7f0e"
           r="0.40000001em"
           cx="-9.9180326"
           cy="10.688524" />
      </g>
      <g
         transform="translate(2.2540989)"
         id="g1126">
        <text
           id="text264"
           x="-3.6847081"
           y="247.77634"
           style="font-size:14.39999962px;stroke-width:1.20000005">c++</text>
        <circle
           id="circle274"
           style="fill:#d62728"
           r="0.40000001em"
           cx="-13.073771"
           cy="244.04099" />
      </g>
      <g
         transform="translate(2.2540989)"
         id="g1130">
        <text
           id="text266"
           x="-1.6761143"
           y="234.46716"
           style="font-size:14.39999962px;stroke-width:1.20000005">r</text>
        <circle
           id="circle276"
           style="fill:#1f77b4"
           r="0.40000001em"
           cx="-13.073771"
           cy="230.79509" />
      </g>
      <g
         transform="translate(-0.90163994)"
         id="g1122">
        <text
           id="text268"
           x="1.4304047"
           y="264.93378"
           style="font-size:14.39999962px;stroke-width:1.20000005">c</text>
        <circle
           id="circle278"
           style="fill:#2ca02c"
           r="0.40000001em"
           cx="-9.9180326"
           cy="261.27869" />
      </g>
      <g
         id="g1118">
        <text
           id="text270"
           x="-2.8573675"
           y="291.1488"
           style="font-size:14.39999962px;stroke-width:1.20000005">fortran</text>
        <circle
           id="circle280"
           style="fill:#9467bd"
           r="0.40000001em"
           cx="-10.819673"
           cy="287.25409" />
      </g>
      <rect
         id="rect284"
         class="legend-box"
         width="0"
         height="0"
         x="0"
         y="0" />
    </g>
  </g>
</svg>
